<svg id="Calque_2" data-name="Calque 2" xmlns="http://www.w3.org/2000/svg" viewBox="0 0 1134.68 865.48">
  <defs>
    <style>
      .cls-1 {
        fill: #fff;
      }
    </style>
  </defs>
  <g id="Calque_1-2" data-name="Calque 1">
    <g>
      <path class="cls-1" d="M936.31,70.17C898.11,25.63,842.36,0,783.69,0H0l157.56,183.73c15.2,17.73,37.39,27.93,60.74,27.93h839.34l-121.33-141.48Z"/>
      <path class="cls-1" d="M1116.37,298.57l-58.72-86.91-336.15,227.11,24.72,36.59c51.79,76.65,155.9,96.81,232.55,45.02l108.89-73.57c48.86-33.01,61.71-99.38,28.7-148.25Z"/>
      <path class="cls-1" d="M460.51,431.16v434.33s44.16,0,44.16,0c92.5,0,167.49-74.99,167.49-167.49v-434.33s-44.16,0-44.16,0c-92.5,0-167.49,74.99-167.49,167.49Z"/>
    </g>
  </g>
</svg>
